<svg xmlns="http://www.w3.org/2000/svg" width="50" height="49.999" viewBox="0 0 50 49.999">
  <path id="API"
    d="M-849.268-2240.219a2.5,2.5,0,0,1,0-3.536l4.661-4.66a11.175,11.175,0,0,1-1.426-3.149,12.157,12.157,0,0,1-.268-5.094,13.6,13.6,0,0,1,3.282-7.1l3.751-3.75a2.488,2.488,0,0,1,1.768-.733,2.487,2.487,0,0,1,1.767.733l.732.732,3.232-3.232a2.5,2.5,0,0,1,3.536,0,2.5,2.5,0,0,1,0,3.536l-3.233,3.232,5.214,5.214,3.232-3.231a2.5,2.5,0,0,1,3.536,0,2.5,2.5,0,0,1,0,3.536l-3.232,3.231.732.732a2.5,2.5,0,0,1,0,3.536l-3.75,3.75a11.783,11.783,0,0,1-3.655,2.31,14.147,14.147,0,0,1-5.4,1.122,11.351,11.351,0,0,1-6.28-1.845l-4.663,4.663a2.492,2.492,0,0,1-1.768.732A2.494,2.494,0,0,1-849.268-2240.219Zm9.786-20c-1.081,1.081-3.83,6.384,0,10.213a6.434,6.434,0,0,0,4.693,1.968,9.02,9.02,0,0,0,5.522-1.967l1.982-1.983-.726-.726-.006-.006-.006-.006-9.475-9.476Zm25.214-1.251-13.75-13.75a2.5,2.5,0,0,1,0-3.536l3.751-3.75a11.777,11.777,0,0,1,3.655-2.31,14.134,14.134,0,0,1,5.4-1.122,11.348,11.348,0,0,1,6.279,1.845l4.662-4.662a2.5,2.5,0,0,1,3.536,0,2.5,2.5,0,0,1,0,3.535l-4.661,4.661a11.145,11.145,0,0,1,1.426,3.149,12.155,12.155,0,0,1,.268,5.093,13.6,13.6,0,0,1-3.282,7.1l-3.75,3.75a2.5,2.5,0,0,1-1.768.732A2.5,2.5,0,0,1-814.268-2261.469Zm-6.465-17.5-1.982,1.983,10.215,10.214,1.982-1.983c1.082-1.081,3.831-6.384,0-10.214a6.434,6.434,0,0,0-4.691-1.968A9.028,9.028,0,0,0-820.733-2278.969Z"
    transform="translate(850.001 2289.486)" fill="#242424" />
</svg>