<svg xmlns="http://www.w3.org/2000/svg" width="50" height="50" viewBox="0 0 50 50">
  <path id="Bootstrap"
    d="M-644.447-2319h-37.106a6.407,6.407,0,0,1-2.509-.507,6.426,6.426,0,0,1-2.049-1.382,6.424,6.424,0,0,1-1.382-2.049,6.406,6.406,0,0,1-.507-2.51v-37.106a6.406,6.406,0,0,1,.507-2.51,6.424,6.424,0,0,1,1.382-2.049,6.425,6.425,0,0,1,2.049-1.382,6.407,6.407,0,0,1,2.51-.507h37.106a6.407,6.407,0,0,1,2.51.507,6.43,6.43,0,0,1,2.049,1.381,6.43,6.43,0,0,1,1.382,2.049,6.407,6.407,0,0,1,.507,2.51v37.106a6.408,6.408,0,0,1-.507,2.51,6.426,6.426,0,0,1-1.382,2.049,6.424,6.424,0,0,1-2.049,1.382A6.407,6.407,0,0,1-644.447-2319Zm-29.476-40.137v30.273h14.67a15.545,15.545,0,0,0,3.964-.509,10.652,10.652,0,0,0,3.434-1.569,7.763,7.763,0,0,0,2.4-2.735,8.373,8.373,0,0,0,.89-3.965,8.427,8.427,0,0,0-1.378-4.855,7.309,7.309,0,0,0-4.177-2.82,7.577,7.577,0,0,0,3.074-2.5,6.66,6.66,0,0,0,1.039-3.816,8.159,8.159,0,0,0-.7-3.562,5.842,5.842,0,0,0-1.972-2.311,8.546,8.546,0,0,0-3.053-1.251,18.951,18.951,0,0,0-3.943-.382Zm13.78,25.1h-7.123v-8.31h7.25a7.112,7.112,0,0,1,1.951.249,4.615,4.615,0,0,1,1.526.747,3.031,3.031,0,0,1,.986,1.33,5.466,5.466,0,0,1,.329,2,4.181,4.181,0,0,1-.4,1.95,3.213,3.213,0,0,1-1.081,1.208,4.6,4.6,0,0,1-1.569.636A8.928,8.928,0,0,1-660.143-2334.036Zm-.382-12.847h-6.741v-7.081h6.233a9.765,9.765,0,0,1,1.717.148,4.307,4.307,0,0,1,1.463.53,2.836,2.836,0,0,1,1.018,1.06,3.536,3.536,0,0,1,.382,1.738,4.291,4.291,0,0,1-.286,1.643,2.6,2.6,0,0,1-.859,1.113,4.093,4.093,0,0,1-1.3.636A5.843,5.843,0,0,1-660.524-2346.883Z"
    transform="translate(688 2369)" fill="#563d7c" />
</svg>