<svg xmlns="http://www.w3.org/2000/svg" width="47.866" height="50" viewBox="0 0 47.866 50">
  <g id="CSS" transform="translate(-1.305 -1)">
    <path id="Frame"
      d="M8.02,1A6.714,6.714,0,0,0,1.374,8.663L4.885,33.242a6.714,6.714,0,0,0,2.225,4.1L20.818,49.339a6.714,6.714,0,0,0,8.842,0L43.367,37.345a6.715,6.715,0,0,0,2.225-4.1L49.1,8.663A6.714,6.714,0,0,0,42.457,1ZM5.8,8.03A2.238,2.238,0,0,1,8.02,5.476H42.457A2.238,2.238,0,0,1,44.672,8.03L41.161,32.609a2.238,2.238,0,0,1-.742,1.368L26.712,45.97a2.238,2.238,0,0,1-2.947,0L10.058,33.977a2.238,2.238,0,0,1-.742-1.368Z"
      transform="translate(0)" fill="#242424" fill-rule="evenodd" />
    <path id="Path_3" data-name="Path 3"
      d="M9.238,5a2.238,2.238,0,1,0,0,4.476h9.476l-8.349,4.771a2.238,2.238,0,0,0,1.11,4.181H22.218a.447.447,0,0,1,.448.448v5.154a.448.448,0,0,1-.131.317l-4.028,4.028a.447.447,0,0,1-.633,0l-4.815-4.815a2.238,2.238,0,1,0-3.165,3.165l6.714,6.714a2.238,2.238,0,0,0,3.165,0l6.714-6.714a2.238,2.238,0,0,0,.655-1.582V16.189A2.238,2.238,0,0,0,24.9,13.952h-5l8.348-4.771A2.238,2.238,0,0,0,27.141,5Z"
      transform="translate(7.049 4.952)" fill="#08f" />
  </g>
</svg>