<svg xmlns="http://www.w3.org/2000/svg" width="30" height="30" viewBox="0 0 30 30">
  <path id="Git"
    d="M-235,952a2.127,2.127,0,0,1-1.514-.627l-12.859-12.859A2.127,2.127,0,0,1-250,937a2.127,2.127,0,0,1,.627-1.514l8.888-8.888,3.348,3.348a2.242,2.242,0,0,0-.212.96,2.289,2.289,0,0,0,1.473,2.131v8.227a2.288,2.288,0,0,0-1.473,2.131,2.279,2.279,0,0,0,2.277,2.276,2.279,2.279,0,0,0,2.277-2.276,2.272,2.272,0,0,0-1.239-2.028v-8.32l3.215,3.215a2.257,2.257,0,0,0-.2.938,2.28,2.28,0,0,0,2.277,2.277,2.28,2.28,0,0,0,2.277-2.277,2.28,2.28,0,0,0-2.277-2.277,2.277,2.277,0,0,0-.7.11l-3.452-3.452a2.288,2.288,0,0,0,.1-.675,2.28,2.28,0,0,0-2.277-2.277,2.292,2.292,0,0,0-.675.1l-3.435-3.435,2.669-2.669A2.127,2.127,0,0,1-235,922a2.127,2.127,0,0,1,1.514.627l12.859,12.859A2.127,2.127,0,0,1-220,937a2.127,2.127,0,0,1-.627,1.514l-12.859,12.859A2.127,2.127,0,0,1-235,952Z"
    transform="translate(250 -922)" fill="#ee513b" />
</svg>