<svg xmlns="http://www.w3.org/2000/svg" width="50" height="50" viewBox="0 0 50 50">
  <path id="Sass"
    d="M-337.5-2192h-35a7.453,7.453,0,0,1-2.919-.589,7.513,7.513,0,0,1-1.274-.691,7.545,7.545,0,0,1-1.11-.916,7.546,7.546,0,0,1-.916-1.11,7.5,7.5,0,0,1-.691-1.274A7.454,7.454,0,0,1-380-2199.5v-35a7.454,7.454,0,0,1,.589-2.919,7.5,7.5,0,0,1,.691-1.274,7.555,7.555,0,0,1,.916-1.11,7.552,7.552,0,0,1,1.11-.916,7.493,7.493,0,0,1,1.274-.692A7.452,7.452,0,0,1-372.5-2242h35a7.453,7.453,0,0,1,2.919.589,7.493,7.493,0,0,1,1.274.692,7.552,7.552,0,0,1,1.11.916,7.557,7.557,0,0,1,.916,1.11,7.509,7.509,0,0,1,.691,1.274A7.454,7.454,0,0,1-330-2234.5v35a7.454,7.454,0,0,1-.589,2.919,7.5,7.5,0,0,1-.691,1.274,7.544,7.544,0,0,1-.916,1.11,7.545,7.545,0,0,1-1.11.916,7.513,7.513,0,0,1-1.274.691A7.453,7.453,0,0,1-337.5-2192Zm-10.94-42.482a20.155,20.155,0,0,0-6.365,1.076,30.592,30.592,0,0,0-11.157,6.58,15.265,15.265,0,0,0-2.933,3.761,5.621,5.621,0,0,0-.754,3.331,7.711,7.711,0,0,0,2.66,4.265,37.426,37.426,0,0,0,4.457,3.416c.731.5,1.422.979,1.965,1.4a26.228,26.228,0,0,0-5.127,3.284c-1.7,1.487-2.534,3.011-2.49,4.529.11,2.645,1.765,3.2,3.133,3.2a8.837,8.837,0,0,0,4.289-1.345,7.646,7.646,0,0,0,2.783-3.6,8.041,8.041,0,0,0,.146-5.579,9.21,9.21,0,0,1,2.3-.291,7.686,7.686,0,0,1,4.146,1.072,4.528,4.528,0,0,1,1.474,1.6,2.529,2.529,0,0,1,.268,1.5,2.577,2.577,0,0,1-.518,1.226,1.99,1.99,0,0,1-.832.659,2.128,2.128,0,0,0-.443.206c-.083.056-.123.109-.116.152.012.067.141.109.336.109a1.943,1.943,0,0,0,.516-.077,3.244,3.244,0,0,0,1.331-.867,2.844,2.844,0,0,0,.818-1.965c0-3.141-2.565-5.17-6.536-5.17a13.9,13.9,0,0,0-3.523.483,28.606,28.606,0,0,0-3.324-2.889,19.03,19.03,0,0,1-2.951-2.629,5.232,5.232,0,0,1-.882-1.461,4.088,4.088,0,0,1-.265-1.712,5.537,5.537,0,0,1,.269-1.408,7.245,7.245,0,0,1,1.147-2.1c1.484-1.944,4.129-3.887,7.861-5.774a26.757,26.757,0,0,1,4.995-1.963,15.854,15.854,0,0,1,4.124-.609c2.022,0,3.583.544,4.4,1.531a2.642,2.642,0,0,1,.541,1.091,3.143,3.143,0,0,1,.006,1.317,7.262,7.262,0,0,1-1.526,3.144,10.748,10.748,0,0,1-1.3,1.351,13.192,13.192,0,0,1-1.551,1.167,14.887,14.887,0,0,1-1.724.955,15.015,15.015,0,0,1-1.819.716,13.393,13.393,0,0,1-1.836.45,10.689,10.689,0,0,1-1.774.156,7.15,7.15,0,0,1-2.184-.312,4.438,4.438,0,0,1-1.719-.985.636.636,0,0,0-.449-.354.135.135,0,0,0-.117.058c-.052.074-.08.253.078.687a3.537,3.537,0,0,0,2.01,1.848,9.129,9.129,0,0,0,3.526.622c5.086,0,12.457-3.16,12.921-10.185a4.473,4.473,0,0,0-1.266-3.39C-342.838-2233.674-345.33-2234.482-348.439-2234.482Zm-15.912,32.541h0a1.106,1.106,0,0,1-.89-.338,1.569,1.569,0,0,1-.208-1.243c.37-2.1,2.309-4.035,5.762-5.762a5.59,5.59,0,0,1-.375,4.434,5.992,5.992,0,0,1-1.439,1.757,4.787,4.787,0,0,1-1.7.938A3.886,3.886,0,0,1-364.351-2201.942Z"
    transform="translate(380 2242)" fill="#c69" />
</svg>