<svg xmlns="http://www.w3.org/2000/svg" width="21.132" height="21.132" viewBox="0 0 21.132 21.132">
	<g id="Arrow_Up" data-name="Arrow Up" transform="translate(-1519.991 -949.79)">
		<path id="Path" d="M2.49,0a2.49,2.49,0,0,1,2.49,2.49V22.414a2.49,2.49,0,0,1-4.981,0V2.49A2.49,2.49,0,0,1,2.49,0Z"
			transform="translate(1519.991 953.312) rotate(-45)" opacity="0.5" />
		<path id="Path-2" data-name="Path"
			d="M2.49,9a2.49,2.49,0,0,1,2.49,2.49V22.414a2.49,2.49,0,0,1-4.981,0V11.49A2.49,2.49,0,0,1,2.49,9Z"
			transform="translate(1520.691 941.463)" />
		<path id="Path-3" data-name="Path"
			d="M2.49,9a2.49,2.49,0,0,1,2.49,2.49V22.414a2.49,2.49,0,0,1-4.981,0V11.49A2.49,2.49,0,0,1,2.49,9Z"
			transform="translate(1545.595 950.463) rotate(90)" />
	</g>
</svg>