<svg xmlns="http://www.w3.org/2000/svg" width="25" height="20" viewBox="0 0 25 20">
  <g id="Email" transform="translate(-1.25 -2.75)">
    <path id="vector_Stroke_" data-name="vector (Stroke)"
      d="M3.128,4.25a7.215,7.215,0,0,1,4.809-1.5H19.564a7.215,7.215,0,0,1,4.808,1.5A5.928,5.928,0,0,1,26.25,8.966v7.568a5.928,5.928,0,0,1-1.878,4.716,7.214,7.214,0,0,1-4.808,1.5H7.936a7.215,7.215,0,0,1-4.809-1.5A5.928,5.928,0,0,1,1.25,16.534V8.966A5.928,5.928,0,0,1,3.128,4.25Z"
      transform="translate(0)" fill-rule="evenodd" opacity="0.4" />
    <path id="vector_Stroke__2" data-name="vector (Stroke)_2"
      d="M21.786,7.334a.773.773,0,0,1-.157,1.137l-6.45,4.634a3.391,3.391,0,0,1-3.91,0L4.819,8.471a.773.773,0,0,1-.157-1.137.917.917,0,0,1,1.223-.146l6.45,4.634a1.541,1.541,0,0,0,1.777,0l6.45-4.634A.917.917,0,0,1,21.786,7.334Z"
      transform="translate(0.526 0.346)" fill-rule="evenodd" />
  </g>
</svg>