<svg xmlns="http://www.w3.org/2000/svg" width="35" height="50" viewBox="0 0 35 50">
  <g id="Firebase" transform="translate(-4.489 -4.302)">
    <path id="Path_18" data-name="Path 18" d="M-881.663-2395a1.038,1.038,0,0,1,1.988-.374l6.184,12.089-14.1,27.9Z"
      transform="translate(892.089 2400.302)" fill="#ffa712" />
    <path id="Path_13" data-name="Path 13"
      d="M107.176,64.76l4.488-4.752-4.488-8.835a1.02,1.02,0,0,0-1.883-.085l-2.48,4.94-.074.253Z"
      transform="translate(-84.347 -39.217)" fill="#ffa50e" />
    <path id="Path_15" data-name="Path 15" d="M2.509,115.147l18.27-18.556.228-.642L16.517,87.1Z"
      transform="translate(1.983 -70.232)" fill="#f6820c" />
    <path id="Path_17" data-name="Path 17"
      d="M39.489,102.867,34.874,73.476a.972.972,0,0,0-1.7-.641L4.489,103.24l15.568,8.946a3.258,3.258,0,0,0,3.269,0Z"
      transform="translate(0 -58.325)" fill="#fcca3f" />
  </g>
</svg>