<svg xmlns="http://www.w3.org/2000/svg" width="20" height="20" viewBox="0 0 20 20">
    <path
        d="M94,7399a10.128,10.128,0,0,1,10,10.25,10.239,10.239,0,0,1-6.833,9.73c-.507.1-.687-.22-.687-.49,0-.34.012-1.44.012-2.82a2.476,2.476,0,0,0-.679-1.89c2.227-.26,4.567-1.12,4.567-5.06a3.992,3.992,0,0,0-1.03-2.75,3.782,3.782,0,0,0-.1-2.72s-.838-.27-2.747,1.05a9.395,9.395,0,0,0-5.008,0c-1.911-1.32-2.751-1.05-2.751-1.05a3.8,3.8,0,0,0-.1,2.72,4.006,4.006,0,0,0-1.03,2.75c0,3.93,2.335,4.81,4.556,5.07a2.167,2.167,0,0,0-.635,1.37,2.1,2.1,0,0,1-2.91-.86,2.1,2.1,0,0,0-1.533-1.05s-.975-.02-.068.62a2.724,2.724,0,0,1,1.11,1.5s.587,1.83,3.369,1.21c0,.86.014,1.67.014,1.91,0,.27-.184.59-.683.49A10.231,10.231,0,0,1,84,7409.25,10.128,10.128,0,0,1,94,7399"
        transform="translate(-84 -7399)" fill="#fff" fill-rule="evenodd" />
</svg>