<svg xmlns="http://www.w3.org/2000/svg" width="25" height="25.002" viewBox="0 0 25 25.002">
  <path
    d="M27,4H6.141A2.047,2.047,0,0,0,4,5.954V26.86A2.2,2.2,0,0,0,6.141,29H27a2.094,2.094,0,0,0,2-2.141V5.954A1.922,1.922,0,0,0,27,4ZM11.812,24.844H8.172V13.7h3.641ZM10.078,12.016a1.844,1.844,0,0,1-1.906-1.922,1.844,1.844,0,0,1,1.937-1.922,1.844,1.844,0,0,1,1.906,1.922,1.844,1.844,0,0,1-1.937,1.922ZM24.843,24.844H21.187V18.75c0-1.453-.516-2.453-1.812-2.453a1.953,1.953,0,0,0-1.828,1.312,2.236,2.236,0,0,0-.125.891v6.344H13.828V13.7h3.594v1.562A3.624,3.624,0,0,1,20.7,13.376c2.359,0,4.141,1.563,4.141,4.891Z"
    transform="translate(-4 -3.999)" />
</svg>