<svg xmlns="http://www.w3.org/2000/svg" width="25" height="25" viewBox="0 0 25 25">
  <g id="Call" transform="translate(-4 -4)">
    <path id="Path_19" data-name="Path 19"
      d="M16.256,19.263,12.162,23.35q-.676-.6-1.314-1.237a35.532,35.532,0,0,1-3.493-4.087A22.276,22.276,0,0,1,4.9,13.763,10.515,10.515,0,0,1,4,9.675a6.458,6.458,0,0,1,.451-2.412A5.753,5.753,0,0,1,5.89,5.175,3.671,3.671,0,0,1,8.494,4a2.356,2.356,0,0,1,1.014.225,2.04,2.04,0,0,1,.839.7l2.9,4.088a4.276,4.276,0,0,1,.5.875,1.973,1.973,0,0,1,.175.763,1.7,1.7,0,0,1-.263.887,4.253,4.253,0,0,1-.7.887l-.951.988a.668.668,0,0,0-.2.5,1.133,1.133,0,0,0,.038.287c.038.1.075.175.1.25a10.374,10.374,0,0,0,1.164,1.6c.563.65,1.164,1.312,1.815,1.975C15.38,18.462,15.818,18.888,16.256,19.263Z"
      transform="translate(0)" opacity="0.4" />
    <path id="Path_20" data-name="Path 20"
      d="M34.685,33.443A3.17,3.17,0,0,1,34.5,34.5a3.05,3.05,0,0,1-.125.3,5.157,5.157,0,0,1-.851,1.275,5.644,5.644,0,0,1-2.053,1.475c-.013,0-.025.012-.038.012a6.332,6.332,0,0,1-2.4.463,10.446,10.446,0,0,1-4.081-.912,22,22,0,0,1-4.307-2.475c-.488-.363-.976-.725-1.44-1.113l4.094-4.087a7.035,7.035,0,0,0,.926.6c.063.025.138.063.225.1a.866.866,0,0,0,.313.05.689.689,0,0,0,.513-.212l.951-.937a3.84,3.84,0,0,1,.9-.7,1.669,1.669,0,0,1,.889-.263,2,2,0,0,1,.764.163,4.844,4.844,0,0,1,.876.487L33.8,31.667a1.9,1.9,0,0,1,.689.8A2.561,2.561,0,0,1,34.685,33.443Z"
      transform="translate(-5.685 -9.03)" />
  </g>
</svg>