<svg xmlns="http://www.w3.org/2000/svg" width="50" height="44.486" viewBox="0 0 50 44.486">
  <path id="React.JS"
    d="M41.11,14.419q-.778-.268-1.61-.507.137-.557.249-1.1c1.218-5.914.422-10.679-2.3-12.248C34.842-.938,30.576.63,26.268,4.38q-.621.541-1.245,1.142-.415-.4-.828-.765C19.679.748,15.154-.942,12.436.632,9.83,2.14,9.058,6.619,10.155,12.224q.159.812.37,1.656c-.641.182-1.259.376-1.851.582C3.381,16.308,0,19.2,0,22.2c0,3.1,3.629,6.207,9.143,8.091q.653.223,1.352.423-.227.912-.393,1.785c-1.046,5.508-.229,9.881,2.37,11.38,2.684,1.548,7.19-.043,11.577-3.878q.52-.455,1.043-.962.678.653,1.352,1.233c4.249,3.657,8.446,5.133,11.043,3.63,2.682-1.553,3.554-6.251,2.422-11.966q-.129-.655-.3-1.336.475-.14.93-.291C46.271,28.411,50,25.341,50,22.2c0-3.011-3.49-5.923-8.89-7.782ZM39.867,28.283q-.41.136-.84.263A50.108,50.108,0,0,0,36.5,22.211a50.092,50.092,0,0,0,2.433-6.242q.767.222,1.486.469c4.627,1.593,7.449,3.948,7.449,5.762,0,1.933-3.048,4.442-8,6.082Zm-2.054,4.069a18.09,18.09,0,0,1,.24,6.6,4.414,4.414,0,0,1-1.637,3.1c-1.576.912-4.945-.274-8.579-3.4q-.625-.538-1.257-1.146a50.153,50.153,0,0,0,4.191-5.321,49.851,49.851,0,0,0,6.772-1.044q.153.617.271,1.21ZM17.046,41.9a4.415,4.415,0,0,1-3.507.132c-1.577-.91-2.233-4.421-1.338-9.131q.154-.809.365-1.66a50.24,50.24,0,0,0,6.738.975,52.006,52.006,0,0,0,4.292,5.3q-.478.462-.953.877a18.091,18.091,0,0,1-5.6,3.5ZM9.834,28.271A18.092,18.092,0,0,1,4,25.173,4.414,4.414,0,0,1,2.136,22.2c0-1.821,2.714-4.143,7.242-5.721.549-.192,1.124-.372,1.721-.542a51.2,51.2,0,0,0,2.437,6.315,52.04,52.04,0,0,0-2.467,6.4q-.638-.184-1.234-.387Zm2.418-16.457c-.94-4.8-.316-8.425,1.255-9.334,1.673-.968,5.372.412,9.27,3.874q.374.332.75.692a51.177,51.177,0,0,0-4.259,5.271A52.2,52.2,0,0,0,12.6,13.354q-.2-.785-.344-1.54ZM33.819,17.14q-.742-1.282-1.521-2.5c1.6.2,3.124.469,4.559.8a45.614,45.614,0,0,1-1.6,4.305q-.681-1.292-1.438-2.6Zm-8.8-8.567a45.685,45.685,0,0,1,2.942,3.552Q26.5,12.056,25,12.055q-1.483,0-2.943.069c.971-1.281,1.967-2.471,2.967-3.551Zm-8.852,8.581q-.741,1.285-1.411,2.586c-.622-1.475-1.154-2.926-1.589-4.327,1.427-.319,2.948-.58,4.533-.778q-.788,1.229-1.533,2.519Zm1.578,12.764a45.459,45.459,0,0,1-4.608-.741c.442-1.426.985-2.907,1.621-4.414q.671,1.3,1.418,2.587h0q.76,1.312,1.57,2.568Zm7.332,6.061c-1.013-1.092-2.022-2.3-3.008-3.6q1.436.056,2.925.057,1.529,0,3.018-.067a45.442,45.442,0,0,1-2.935,3.611ZM35.278,24.687a45.287,45.287,0,0,1,1.679,4.4,45.314,45.314,0,0,1-4.664.8q.779-1.234,1.535-2.544t1.45-2.649Zm-3.3,1.582c-.782,1.355-1.584,2.649-2.4,3.87-1.484.106-3.017.161-4.579.161s-3.07-.048-4.527-.143c-.847-1.237-1.667-2.535-2.444-3.876h0c-.775-1.338-1.487-2.687-2.133-4.029.646-1.345,1.357-2.7,2.127-4.031h0c.772-1.339,1.585-2.63,2.424-3.86,1.487-.112,3.012-.171,4.553-.171h0c1.548,0,3.075.059,4.561.172.827,1.22,1.634,2.507,2.409,3.847.784,1.354,1.5,2.7,2.155,4.012-.649,1.338-1.368,2.694-2.148,4.047ZM36.384,2.417c1.674.966,2.325,4.86,1.273,9.966q-.1.489-.225.994a51.168,51.168,0,0,0-6.685-1.056,50.162,50.162,0,0,0-4.227-5.275q.576-.554,1.15-1.055c3.691-3.212,7.141-4.481,8.713-3.574ZM25,17.736A4.465,4.465,0,1,1,20.535,22.2,4.465,4.465,0,0,1,25,17.736Z"
    fill="#00d8ff" />
</svg>