<svg xmlns="http://www.w3.org/2000/svg" width="50" height="45" viewBox="0 0 50 45">
  <path id="Redux"
    d="M36.233,34.607a3.442,3.442,0,0,0,3.181-3.5,3.493,3.493,0,0,0-3.563-3.257h-.127a3.455,3.455,0,0,0-3.436,3.5,3.382,3.382,0,0,0,1.018,2.232c-2.163,4.042-5.472,7-10.435,9.471A18.015,18.015,0,0,1,12.5,44.922a8.946,8.946,0,0,1-6.49-3.559,8.475,8.475,0,0,1-.509-9.35,14.451,14.451,0,0,1,4.327-4.826A31.16,31.16,0,0,1,9,24.111C-.225,30.444.73,39.01,3.529,43.052c2.1,3.016,6.363,4.886,11.071,4.886a16.475,16.475,0,0,0,3.818-.422A24.278,24.278,0,0,0,36.233,34.607Zm11.2-7.48C42.6,21.758,35.47,18.8,27.326,18.8H26.308a3.522,3.522,0,0,0-3.118-1.81h-.127a3.455,3.455,0,0,0-3.436,3.5,3.493,3.493,0,0,0,3.563,3.257h.127A3.583,3.583,0,0,0,26.435,21.7H27.58a25.2,25.2,0,0,1,13.553,3.921,16.385,16.385,0,0,1,6.744,7.721,7.97,7.97,0,0,1-.127,7.118A9.419,9.419,0,0,1,39.033,45.4,17.027,17.027,0,0,1,32.8,44.137c-.7.6-1.972,1.568-2.863,2.172a20.53,20.53,0,0,0,8.208,1.87c6.108,0,10.626-3.2,12.344-6.394C52.331,38.286,52.2,32.254,47.432,27.127ZM15.109,35.632a3.493,3.493,0,0,0,3.563,3.257H18.8a3.455,3.455,0,0,0,3.436-3.5,3.493,3.493,0,0,0-3.563-3.257h-.127a1.14,1.14,0,0,0-.445.06A21.189,21.189,0,0,1,14.791,18.8a15.7,15.7,0,0,1,3.754-9.35c1.845-2.232,5.408-3.318,7.826-3.378,6.744-.121,9.607,7.842,9.8,11.039.827.181,2.227.6,3.181.9C38.588,8.246,32.225,3.179,26.117,3.179c-5.727,0-11.008,3.921-13.107,9.712-2.927,7.721-1.018,15.141,2.545,20.992a2.6,2.6,0,0,0-.445,1.749Z"
    transform="translate(-1.589 -3.179)" fill="#764abc" />
</svg>