<svg xmlns="http://www.w3.org/2000/svg" width="50" height="50" viewBox="0 0 50 50">
  <path id="TypeScript"
    d="M-848-2105h-30a10.011,10.011,0,0,1-10-10v-30a10.011,10.011,0,0,1,10-10h30a10.011,10.011,0,0,1,10,10v30A10.011,10.011,0,0,1-848-2105Zm-6.476-11.05h0l-1.412.825-1.875,1.087-.475.3a9.032,9.032,0,0,0,1.3,1.925,9.417,9.417,0,0,0,5.088,2.662,14.184,14.184,0,0,0,2.145.137,10.923,10.923,0,0,0,1.668-.1c2.768-.459,4.734-1.867,5.538-3.963a7.3,7.3,0,0,0-.588-6.088c-.933-1.443-2.463-2.452-6.062-4-1.944-.853-2.567-1.272-2.9-1.95a1.977,1.977,0,0,1-.225-.95,2,2,0,0,1,2.249-2.008c.081,0,.166,0,.251.009a2.851,2.851,0,0,1,2.35,1.4c.174.282.365.5.436.5a.023.023,0,0,0,.014,0c1.332-.825,3.475-2.274,3.475-2.35a7.907,7.907,0,0,0-1.2-1.6,6.084,6.084,0,0,0-3.125-1.788l.025-.025a11.368,11.368,0,0,0-2.422-.221,7.724,7.724,0,0,0-1.378.1,6.06,6.06,0,0,0-5.126,4.75,9.6,9.6,0,0,0,.076,3.213,7.121,7.121,0,0,0,1.374,2.5,12.634,12.634,0,0,0,4.713,2.875c2.286,1.016,3.06,1.465,3.45,2a1.926,1.926,0,0,1,.375,1.275,1.874,1.874,0,0,1-.662,1.5,3.749,3.749,0,0,1-2.5.811,5.28,5.28,0,0,1-2.379-.562,6.758,6.758,0,0,1-1.875-1.825l-.326-.437Zm-16.062-11.824v18.5h4.612v-18.5h6.5v-2a15.593,15.593,0,0,0-.049-2.062c-.024-.033-3.058-.05-8.775-.05l-8.75.038v2.05l-.038-.012h0v2.038Z"
    transform="translate(888 2155)" fill="#007acc" />
</svg>